<svg width="12" height="13" viewBox="0 0 12 13" fill="none" xmlns="http://www.w3.org/2000/svg">
<path d="M8.30324 0.381836H3.69676C1.65717 0.381836 0 2.03901 0 4.0786V8.68507C0 10.7247 1.65717 12.3818 3.69676 12.3818H8.30324C10.3428 12.3818 12 10.7247 12 8.68507V4.0786C12 2.03901 10.3428 0.381836 8.30324 0.381836ZM10.8469 8.23891C10.8469 9.89029 9.50845 11.2288 7.86287 11.2288H4.13713C2.48576 11.2288 1.14727 9.89029 1.14727 8.23891V4.51897C1.15307 2.87339 2.49155 1.5349 4.13713 1.5349H7.85707C9.50845 1.5349 10.8411 2.87339 10.8411 4.52476V8.23891H10.8469Z" fill="#C4C4C4"/>
<path d="M6.15887 3.24414C4.41479 3.24414 3.00098 4.65795 3.00098 6.40204C3.00098 8.14612 4.41479 9.55993 6.15887 9.55993C7.90296 9.55993 9.31676 8.14612 9.31676 6.40204C9.32256 4.65795 7.90296 3.24414 6.15887 3.24414ZM6.15887 8.30257C5.1101 8.30257 4.25834 7.45081 4.25834 6.40204C4.25834 5.35327 5.1101 4.5015 6.15887 4.5015C7.20764 4.5015 8.0594 5.35327 8.0594 6.40204C8.0594 7.45081 7.20764 8.30257 6.15887 8.30257Z" fill="#C4C4C4"/>
<path d="M9.90867 3.19213C9.90867 3.63829 9.54942 3.99753 9.10326 3.99753C8.6571 3.99753 8.29785 3.63829 8.29785 3.19213C8.29785 2.74597 8.6571 2.38672 9.10326 2.38672C9.54363 2.38672 9.90867 2.74597 9.90867 3.19213Z" fill="#C4C4C4"/>
</svg>
