<svg width="83" height="26" viewBox="0 0 83 26" fill="none" xmlns="http://www.w3.org/2000/svg">
<path d="M19.9578 8.374H21.3936V14.3155H24.4305V0.628296H21.3936V7.47191H19.9578V0.628296H16.9209V14.3155H19.9578V8.374Z" fill="#4C966E"/>
<path d="M50.8177 10.6127H54.1427V0.628296H54.0247H50.8177H41.334V1.52566H50.8177V10.6127Z" fill="#4C966E"/>
<path d="M71.2408 0.812469H67.708V8.9549H71.2408V0.812469Z" fill="#4C966E"/>
<path d="M39.1048 13.4134H34.5896V10.6127H39.1048V9.7106H30.0697V6.06918H39.1048V5.6205V5.16709V0.628296H37.9665H35.2319H26.2016V1.52566H35.2319V5.16709H26.2016V5.42685H26.1968V10.4191H26.2016V10.6127H30.7167V13.4134H26.0977V14.3155H39.1048V13.4134Z" fill="#4C966E"/>
<path d="M54.2799 13.4132H48.7871V8.69968H44.9142V13.4132H40.7061V14.3153H54.2799V13.4132Z" fill="#4C966E"/>
<path d="M59.6836 2.06867L55.8769 8.73753H60.0001L62.9897 3.50446L66.0927 8.55333H66.9382L63.3959 2.79129L63.8068 2.06867H63.8871H66.3903V1.20909H63.8871V0H59.5656V1.20909H55.6738V2.06867H59.5656H59.6836Z" fill="#4C966E"/>
<path d="M58.3892 9.71045H55.9521V14.3815H58.1861H59.825H67.7077H70.8957H71.2405V9.71517H71.0988H67.7124H59.8297H58.3892V9.71045ZM67.7077 10.6125V13.4794H59.825V10.6125H67.7077Z" fill="#4C966E"/>
<path d="M82.2685 17.5601H71.297H69.1528C68.6616 17.5601 68.1657 17.5601 67.6745 17.5601C66.3285 17.5601 64.9871 17.5601 63.6411 17.5601C61.6432 17.5601 59.6407 17.5601 57.6429 17.5601C55.1869 17.5601 52.731 17.5601 50.2703 17.5601C47.5546 17.5601 44.8388 17.5601 42.1184 17.5601C39.3413 17.5601 36.5594 17.5601 33.7823 17.5601C31.1375 17.5601 28.4926 17.5601 25.8477 17.5601C23.5334 17.5601 21.2239 17.5601 18.9096 17.5601C17.1291 17.5601 15.3438 17.5601 13.5632 17.5601C12.4958 17.5601 11.4284 17.5601 10.361 17.5601C9.41171 17.5601 8.47183 17.5601 7.51779 17.5223C6.80934 17.494 6.06783 17.4562 5.54358 16.8894C4.88708 16.181 5.18463 15.1231 5.64748 14.3154L11.8252 4.41131L14.8668 14.3154H15.7972L12.4486 3.41948L14.2055 0.623474H9.68091C9.68091 0.623474 1.08035 14.3012 1.07563 14.3107C0.258551 15.6142 -0.317653 17.2531 0.192429 18.7692C1.05674 21.3385 4.56119 21.7305 6.93686 21.7305H11.4143H67.5942L66.0026 26.0001L82.2685 17.5601Z" fill="#4C966E"/>
</svg>
